<mxfile host="app.diagrams.net" modified="2021-04-28T00:22:54.389Z" agent="5.0 (Windows NT 10.0; Win64; x64) AppleWebKit/537.36 (KHTML, like Gecko) Chrome/90.0.4430.93 Safari/537.36" etag="PodoTO7PGUFLnv1bgAfa" version="14.6.6" type="github">
  <diagram id="R2lEEEUBdFMjLlhIrx00" name="Page-1">
    <mxGraphModel dx="3294" dy="1231" grid="1" gridSize="10" guides="1" tooltips="1" connect="1" arrows="1" fold="1" page="1" pageScale="1" pageWidth="850" pageHeight="1100" math="0" shadow="0" extFonts="Permanent Marker^https://fonts.googleapis.com/css?family=Permanent+Marker">
      <root>
        <mxCell id="0" />
        <mxCell id="1" parent="0" />
        <mxCell id="C-vyLk0tnHw3VtMMgP7b-13" value="Habitaciones" style="shape=table;startSize=40;container=1;collapsible=1;childLayout=tableLayout;fixedRows=1;rowLines=0;fontStyle=1;align=center;resizeLast=1;fontFamily=Verdana;fontSize=15;rounded=1;textDirection=ltr;" parent="1" vertex="1">
          <mxGeometry x="-270" y="840" width="260" height="320" as="geometry" />
        </mxCell>
        <mxCell id="C-vyLk0tnHw3VtMMgP7b-14" value="" style="shape=partialRectangle;collapsible=0;dropTarget=0;pointerEvents=0;fillColor=none;points=[[0,0.5],[1,0.5]];portConstraint=eastwest;top=0;left=0;right=0;bottom=1;fontFamily=Verdana;fontSize=15;rounded=1;textDirection=ltr;" parent="C-vyLk0tnHw3VtMMgP7b-13" vertex="1">
          <mxGeometry y="40" width="260" height="40" as="geometry" />
        </mxCell>
        <mxCell id="C-vyLk0tnHw3VtMMgP7b-15" value="PK" style="shape=partialRectangle;overflow=hidden;connectable=0;fillColor=none;top=0;left=0;bottom=0;right=0;fontStyle=1;fontFamily=Verdana;fontSize=15;rounded=1;textDirection=ltr;" parent="C-vyLk0tnHw3VtMMgP7b-14" vertex="1">
          <mxGeometry width="50" height="40" as="geometry" />
        </mxCell>
        <mxCell id="C-vyLk0tnHw3VtMMgP7b-16" value="Nro habitacion" style="shape=partialRectangle;overflow=hidden;connectable=0;fillColor=none;top=0;left=0;bottom=0;right=0;align=left;spacingLeft=6;fontStyle=5;fontFamily=Verdana;fontSize=15;rounded=1;textDirection=ltr;" parent="C-vyLk0tnHw3VtMMgP7b-14" vertex="1">
          <mxGeometry x="50" width="210" height="40" as="geometry" />
        </mxCell>
        <mxCell id="CNr6qrwwwbzCUoEsULPP-185" value="" style="shape=partialRectangle;collapsible=0;dropTarget=0;pointerEvents=0;fillColor=none;points=[[0,0.5],[1,0.5]];portConstraint=eastwest;top=0;left=0;right=0;bottom=1;fontFamily=Verdana;fontSize=15;rounded=1;textDirection=ltr;" parent="C-vyLk0tnHw3VtMMgP7b-13" vertex="1">
          <mxGeometry y="80" width="260" height="40" as="geometry" />
        </mxCell>
        <mxCell id="CNr6qrwwwbzCUoEsULPP-186" value="PK-FK" style="shape=partialRectangle;overflow=hidden;connectable=0;fillColor=none;top=0;left=0;bottom=0;right=0;fontStyle=1;fontFamily=Verdana;fontSize=15;rounded=1;textDirection=ltr;" parent="CNr6qrwwwbzCUoEsULPP-185" vertex="1">
          <mxGeometry width="50" height="40" as="geometry" />
        </mxCell>
        <mxCell id="CNr6qrwwwbzCUoEsULPP-187" value="NroHotel" style="shape=partialRectangle;overflow=hidden;connectable=0;fillColor=none;top=0;left=0;bottom=0;right=0;align=left;spacingLeft=6;fontStyle=5;fontFamily=Verdana;fontSize=15;rounded=1;textDirection=ltr;" parent="CNr6qrwwwbzCUoEsULPP-185" vertex="1">
          <mxGeometry x="50" width="210" height="40" as="geometry" />
        </mxCell>
        <mxCell id="CNr6qrwwwbzCUoEsULPP-168" value="" style="shape=partialRectangle;collapsible=0;dropTarget=0;pointerEvents=0;fillColor=none;points=[[0,0.5],[1,0.5]];portConstraint=eastwest;top=0;left=0;right=0;bottom=1;fontFamily=Verdana;fontSize=15;rounded=1;textDirection=ltr;" parent="C-vyLk0tnHw3VtMMgP7b-13" vertex="1">
          <mxGeometry y="120" width="260" height="40" as="geometry" />
        </mxCell>
        <mxCell id="CNr6qrwwwbzCUoEsULPP-169" value="PK-FK" style="shape=partialRectangle;overflow=hidden;connectable=0;fillColor=none;top=0;left=0;bottom=0;right=0;fontStyle=1;fontFamily=Verdana;fontSize=15;rounded=1;textDirection=ltr;" parent="CNr6qrwwwbzCUoEsULPP-168" vertex="1">
          <mxGeometry width="50" height="40" as="geometry" />
        </mxCell>
        <mxCell id="CNr6qrwwwbzCUoEsULPP-170" value="NroPaís" style="shape=partialRectangle;overflow=hidden;connectable=0;fillColor=none;top=0;left=0;bottom=0;right=0;align=left;spacingLeft=6;fontStyle=5;fontFamily=Verdana;fontSize=15;rounded=1;textDirection=ltr;" parent="CNr6qrwwwbzCUoEsULPP-168" vertex="1">
          <mxGeometry x="50" width="210" height="40" as="geometry" />
        </mxCell>
        <mxCell id="CNr6qrwwwbzCUoEsULPP-171" value="" style="shape=partialRectangle;collapsible=0;dropTarget=0;pointerEvents=0;fillColor=none;points=[[0,0.5],[1,0.5]];portConstraint=eastwest;top=0;left=0;right=0;bottom=1;fontFamily=Verdana;fontSize=15;rounded=1;textDirection=ltr;" parent="C-vyLk0tnHw3VtMMgP7b-13" vertex="1">
          <mxGeometry y="160" width="260" height="40" as="geometry" />
        </mxCell>
        <mxCell id="CNr6qrwwwbzCUoEsULPP-172" value="PK-FK" style="shape=partialRectangle;overflow=hidden;connectable=0;fillColor=none;top=0;left=0;bottom=0;right=0;fontStyle=1;fontFamily=Verdana;fontSize=15;rounded=1;textDirection=ltr;" parent="CNr6qrwwwbzCUoEsULPP-171" vertex="1">
          <mxGeometry width="50" height="40" as="geometry" />
        </mxCell>
        <mxCell id="CNr6qrwwwbzCUoEsULPP-173" value="NroCiudad" style="shape=partialRectangle;overflow=hidden;connectable=0;fillColor=none;top=0;left=0;bottom=0;right=0;align=left;spacingLeft=6;fontStyle=5;fontFamily=Verdana;fontSize=15;rounded=1;textDirection=ltr;" parent="CNr6qrwwwbzCUoEsULPP-171" vertex="1">
          <mxGeometry x="50" width="210" height="40" as="geometry" />
        </mxCell>
        <mxCell id="CNr6qrwwwbzCUoEsULPP-174" value="" style="shape=partialRectangle;collapsible=0;dropTarget=0;pointerEvents=0;fillColor=none;points=[[0,0.5],[1,0.5]];portConstraint=eastwest;top=0;left=0;right=0;bottom=1;fontFamily=Verdana;fontSize=15;rounded=1;textDirection=ltr;" parent="C-vyLk0tnHw3VtMMgP7b-13" vertex="1">
          <mxGeometry y="200" width="260" height="40" as="geometry" />
        </mxCell>
        <mxCell id="CNr6qrwwwbzCUoEsULPP-175" value="PK-FK" style="shape=partialRectangle;overflow=hidden;connectable=0;fillColor=none;top=0;left=0;bottom=0;right=0;fontStyle=1;fontFamily=Verdana;fontSize=15;rounded=1;textDirection=ltr;" parent="CNr6qrwwwbzCUoEsULPP-174" vertex="1">
          <mxGeometry width="50" height="40" as="geometry" />
        </mxCell>
        <mxCell id="CNr6qrwwwbzCUoEsULPP-176" value="NroZona" style="shape=partialRectangle;overflow=hidden;connectable=0;fillColor=none;top=0;left=0;bottom=0;right=0;align=left;spacingLeft=6;fontStyle=5;fontFamily=Verdana;fontSize=15;rounded=1;textDirection=ltr;" parent="CNr6qrwwwbzCUoEsULPP-174" vertex="1">
          <mxGeometry x="50" width="210" height="40" as="geometry" />
        </mxCell>
        <mxCell id="CNr6qrwwwbzCUoEsULPP-69" value="" style="shape=partialRectangle;collapsible=0;dropTarget=0;pointerEvents=0;fillColor=none;points=[[0,0.5],[1,0.5]];portConstraint=eastwest;top=0;left=0;right=0;bottom=1;fontFamily=Verdana;fontSize=15;rounded=1;textDirection=ltr;" parent="C-vyLk0tnHw3VtMMgP7b-13" vertex="1">
          <mxGeometry y="240" width="260" height="40" as="geometry" />
        </mxCell>
        <mxCell id="CNr6qrwwwbzCUoEsULPP-70" value="FK2" style="shape=partialRectangle;overflow=hidden;connectable=0;fillColor=none;top=0;left=0;bottom=0;right=0;fontStyle=1;fontFamily=Verdana;fontSize=15;rounded=1;textDirection=ltr;" parent="CNr6qrwwwbzCUoEsULPP-69" vertex="1">
          <mxGeometry width="50" height="40" as="geometry" />
        </mxCell>
        <mxCell id="CNr6qrwwwbzCUoEsULPP-71" value="CodTipoHabitacion" style="shape=partialRectangle;overflow=hidden;connectable=0;fillColor=none;top=0;left=0;bottom=0;right=0;align=left;spacingLeft=6;fontStyle=0;fontFamily=Verdana;fontSize=15;rounded=1;textDirection=ltr;" parent="CNr6qrwwwbzCUoEsULPP-69" vertex="1">
          <mxGeometry x="50" width="210" height="40" as="geometry" />
        </mxCell>
        <mxCell id="peaKFF1j2xQkg63rvkMD-68" value="" style="shape=partialRectangle;collapsible=0;dropTarget=0;pointerEvents=0;fillColor=none;points=[[0,0.5],[1,0.5]];portConstraint=eastwest;top=0;left=0;right=0;bottom=0;fontFamily=Verdana;fontSize=15;rounded=1;textDirection=ltr;" parent="C-vyLk0tnHw3VtMMgP7b-13" vertex="1">
          <mxGeometry y="280" width="260" height="40" as="geometry" />
        </mxCell>
        <mxCell id="peaKFF1j2xQkg63rvkMD-69" value="" style="shape=partialRectangle;overflow=hidden;connectable=0;fillColor=none;top=0;left=0;bottom=0;right=0;fontFamily=Verdana;fontSize=15;rounded=1;textDirection=ltr;" parent="peaKFF1j2xQkg63rvkMD-68" vertex="1">
          <mxGeometry width="50" height="40" as="geometry" />
        </mxCell>
        <mxCell id="peaKFF1j2xQkg63rvkMD-70" value="Precio Básico habitacion" style="shape=partialRectangle;overflow=hidden;connectable=0;fillColor=none;top=0;left=0;bottom=0;right=0;align=left;spacingLeft=6;fontFamily=Verdana;fontSize=15;rounded=1;textDirection=ltr;" parent="peaKFF1j2xQkg63rvkMD-68" vertex="1">
          <mxGeometry x="50" width="210" height="40" as="geometry" />
        </mxCell>
        <mxCell id="C-vyLk0tnHw3VtMMgP7b-23" value="Hoteles" style="shape=table;startSize=40;container=1;collapsible=1;childLayout=tableLayout;fixedRows=1;rowLines=0;fontStyle=1;align=center;resizeLast=1;fontFamily=Verdana;fontSize=15;rounded=1;textDirection=ltr;" parent="1" vertex="1">
          <mxGeometry x="-260" y="460" width="240" height="320" as="geometry" />
        </mxCell>
        <mxCell id="C-vyLk0tnHw3VtMMgP7b-24" value="" style="shape=partialRectangle;collapsible=0;dropTarget=0;pointerEvents=0;fillColor=none;points=[[0,0.5],[1,0.5]];portConstraint=eastwest;top=0;left=0;right=0;bottom=1;fontFamily=Verdana;fontSize=15;rounded=1;textDirection=ltr;" parent="C-vyLk0tnHw3VtMMgP7b-23" vertex="1">
          <mxGeometry y="40" width="240" height="40" as="geometry" />
        </mxCell>
        <mxCell id="C-vyLk0tnHw3VtMMgP7b-25" value="PK" style="shape=partialRectangle;overflow=hidden;connectable=0;fillColor=none;top=0;left=0;bottom=0;right=0;fontStyle=1;fontFamily=Verdana;fontSize=15;rounded=1;textDirection=ltr;" parent="C-vyLk0tnHw3VtMMgP7b-24" vertex="1">
          <mxGeometry width="50" height="40" as="geometry" />
        </mxCell>
        <mxCell id="C-vyLk0tnHw3VtMMgP7b-26" value="Nro Hotel" style="shape=partialRectangle;overflow=hidden;connectable=0;fillColor=none;top=0;left=0;bottom=0;right=0;align=left;spacingLeft=6;fontStyle=5;fontFamily=Verdana;fontSize=15;rounded=1;textDirection=ltr;" parent="C-vyLk0tnHw3VtMMgP7b-24" vertex="1">
          <mxGeometry x="50" width="190" height="40" as="geometry" />
        </mxCell>
        <mxCell id="peaKFF1j2xQkg63rvkMD-44" value="" style="shape=partialRectangle;collapsible=0;dropTarget=0;pointerEvents=0;fillColor=none;points=[[0,0.5],[1,0.5]];portConstraint=eastwest;top=0;left=0;right=0;bottom=0;fontFamily=Verdana;fontSize=15;rounded=1;textDirection=ltr;" parent="C-vyLk0tnHw3VtMMgP7b-23" vertex="1">
          <mxGeometry y="80" width="240" height="40" as="geometry" />
        </mxCell>
        <mxCell id="peaKFF1j2xQkg63rvkMD-45" value="pk-fk" style="shape=partialRectangle;overflow=hidden;connectable=0;fillColor=none;top=0;left=0;bottom=0;right=0;fontFamily=Verdana;fontSize=15;fontStyle=5;rounded=1;textDirection=ltr;" parent="peaKFF1j2xQkg63rvkMD-44" vertex="1">
          <mxGeometry width="50" height="40" as="geometry" />
        </mxCell>
        <mxCell id="peaKFF1j2xQkg63rvkMD-46" value="Nro País" style="shape=partialRectangle;overflow=hidden;connectable=0;fillColor=none;top=0;left=0;bottom=0;right=0;align=left;spacingLeft=6;fontFamily=Verdana;fontSize=15;fontStyle=5;rounded=1;textDirection=ltr;" parent="peaKFF1j2xQkg63rvkMD-44" vertex="1">
          <mxGeometry x="50" width="190" height="40" as="geometry" />
        </mxCell>
        <mxCell id="peaKFF1j2xQkg63rvkMD-38" value="" style="shape=partialRectangle;collapsible=0;dropTarget=0;pointerEvents=0;fillColor=none;points=[[0,0.5],[1,0.5]];portConstraint=eastwest;top=0;left=0;right=0;bottom=0;fontFamily=Verdana;fontSize=15;rounded=1;textDirection=ltr;" parent="C-vyLk0tnHw3VtMMgP7b-23" vertex="1">
          <mxGeometry y="120" width="240" height="40" as="geometry" />
        </mxCell>
        <mxCell id="peaKFF1j2xQkg63rvkMD-39" value="pk-fk" style="shape=partialRectangle;overflow=hidden;connectable=0;fillColor=none;top=0;left=0;bottom=0;right=0;fontFamily=Verdana;fontSize=15;fontStyle=5;rounded=1;textDirection=ltr;" parent="peaKFF1j2xQkg63rvkMD-38" vertex="1">
          <mxGeometry width="50" height="40" as="geometry" />
        </mxCell>
        <mxCell id="peaKFF1j2xQkg63rvkMD-40" value="Nro ciudad" style="shape=partialRectangle;overflow=hidden;connectable=0;fillColor=none;top=0;left=0;bottom=0;right=0;align=left;spacingLeft=6;fontFamily=Verdana;fontSize=15;fontStyle=5;rounded=1;textDirection=ltr;" parent="peaKFF1j2xQkg63rvkMD-38" vertex="1">
          <mxGeometry x="50" width="190" height="40" as="geometry" />
        </mxCell>
        <mxCell id="CNr6qrwwwbzCUoEsULPP-91" value="" style="shape=partialRectangle;collapsible=0;dropTarget=0;pointerEvents=0;fillColor=none;points=[[0,0.5],[1,0.5]];portConstraint=eastwest;top=0;left=0;right=0;bottom=0;fontFamily=Verdana;fontSize=15;rounded=1;textDirection=ltr;" parent="C-vyLk0tnHw3VtMMgP7b-23" vertex="1">
          <mxGeometry y="160" width="240" height="40" as="geometry" />
        </mxCell>
        <mxCell id="CNr6qrwwwbzCUoEsULPP-92" value="pk-fk" style="shape=partialRectangle;overflow=hidden;connectable=0;fillColor=none;top=0;left=0;bottom=0;right=0;fontFamily=Verdana;fontSize=15;fontStyle=5;rounded=1;textDirection=ltr;" parent="CNr6qrwwwbzCUoEsULPP-91" vertex="1">
          <mxGeometry width="50" height="40" as="geometry" />
        </mxCell>
        <mxCell id="CNr6qrwwwbzCUoEsULPP-93" value="Nro Zona" style="shape=partialRectangle;overflow=hidden;connectable=0;fillColor=none;top=0;left=0;bottom=0;right=0;align=left;spacingLeft=6;fontFamily=Verdana;fontSize=15;fontStyle=5;rounded=1;textDirection=ltr;" parent="CNr6qrwwwbzCUoEsULPP-91" vertex="1">
          <mxGeometry x="50" width="190" height="40" as="geometry" />
        </mxCell>
        <mxCell id="peaKFF1j2xQkg63rvkMD-50" value="" style="shape=partialRectangle;collapsible=0;dropTarget=0;pointerEvents=0;fillColor=none;points=[[0,0.5],[1,0.5]];portConstraint=eastwest;top=0;left=0;right=0;bottom=0;fontFamily=Verdana;fontSize=15;rounded=1;textDirection=ltr;" parent="C-vyLk0tnHw3VtMMgP7b-23" vertex="1">
          <mxGeometry y="200" width="240" height="40" as="geometry" />
        </mxCell>
        <mxCell id="peaKFF1j2xQkg63rvkMD-51" value="fk2" style="shape=partialRectangle;overflow=hidden;connectable=0;fillColor=none;top=0;left=0;bottom=0;right=0;fontFamily=Verdana;fontSize=15;fontStyle=5;rounded=1;textDirection=ltr;" parent="peaKFF1j2xQkg63rvkMD-50" vertex="1">
          <mxGeometry width="50" height="40" as="geometry" />
        </mxCell>
        <mxCell id="peaKFF1j2xQkg63rvkMD-52" value="Cod. Categoría" style="shape=partialRectangle;overflow=hidden;connectable=0;fillColor=none;top=0;left=0;bottom=0;right=0;align=left;spacingLeft=6;fontFamily=Verdana;fontSize=15;fontStyle=5;rounded=1;textDirection=ltr;" parent="peaKFF1j2xQkg63rvkMD-50" vertex="1">
          <mxGeometry x="50" width="190" height="40" as="geometry" />
        </mxCell>
        <mxCell id="C-vyLk0tnHw3VtMMgP7b-27" value="" style="shape=partialRectangle;collapsible=0;dropTarget=0;pointerEvents=0;fillColor=none;points=[[0,0.5],[1,0.5]];portConstraint=eastwest;top=0;left=0;right=0;bottom=0;fontFamily=Verdana;fontSize=15;rounded=1;textDirection=ltr;" parent="C-vyLk0tnHw3VtMMgP7b-23" vertex="1">
          <mxGeometry y="240" width="240" height="40" as="geometry" />
        </mxCell>
        <mxCell id="C-vyLk0tnHw3VtMMgP7b-28" value="" style="shape=partialRectangle;overflow=hidden;connectable=0;fillColor=none;top=0;left=0;bottom=0;right=0;fontFamily=Verdana;fontSize=15;rounded=1;textDirection=ltr;" parent="C-vyLk0tnHw3VtMMgP7b-27" vertex="1">
          <mxGeometry width="50" height="40" as="geometry" />
        </mxCell>
        <mxCell id="C-vyLk0tnHw3VtMMgP7b-29" value="NombreHotel" style="shape=partialRectangle;overflow=hidden;connectable=0;fillColor=none;top=0;left=0;bottom=0;right=0;align=left;spacingLeft=6;fontFamily=Verdana;fontSize=15;rounded=1;textDirection=ltr;" parent="C-vyLk0tnHw3VtMMgP7b-27" vertex="1">
          <mxGeometry x="50" width="190" height="40" as="geometry" />
        </mxCell>
        <mxCell id="peaKFF1j2xQkg63rvkMD-47" value="" style="shape=partialRectangle;collapsible=0;dropTarget=0;pointerEvents=0;fillColor=none;points=[[0,0.5],[1,0.5]];portConstraint=eastwest;top=0;left=0;right=0;bottom=0;fontFamily=Verdana;fontSize=15;rounded=1;textDirection=ltr;" parent="C-vyLk0tnHw3VtMMgP7b-23" vertex="1">
          <mxGeometry y="280" width="240" height="40" as="geometry" />
        </mxCell>
        <mxCell id="peaKFF1j2xQkg63rvkMD-48" value="" style="shape=partialRectangle;overflow=hidden;connectable=0;fillColor=none;top=0;left=0;bottom=0;right=0;fontFamily=Verdana;fontSize=15;rounded=1;textDirection=ltr;" parent="peaKFF1j2xQkg63rvkMD-47" vertex="1">
          <mxGeometry width="50" height="40" as="geometry" />
        </mxCell>
        <mxCell id="peaKFF1j2xQkg63rvkMD-49" value="Dirección Hotel" style="shape=partialRectangle;overflow=hidden;connectable=0;fillColor=none;top=0;left=0;bottom=0;right=0;align=left;spacingLeft=6;fontFamily=Verdana;fontSize=15;rounded=1;textDirection=ltr;" parent="peaKFF1j2xQkg63rvkMD-47" vertex="1">
          <mxGeometry x="50" width="190" height="40" as="geometry" />
        </mxCell>
        <mxCell id="peaKFF1j2xQkg63rvkMD-83" value="DiferencialXtemporada" style="shape=table;startSize=40;container=1;collapsible=1;childLayout=tableLayout;fixedRows=1;rowLines=0;fontStyle=1;align=center;resizeLast=1;fontFamily=Verdana;fontSize=15;rounded=1;textDirection=ltr;" parent="1" vertex="1">
          <mxGeometry x="510" y="740" width="250" height="320" as="geometry" />
        </mxCell>
        <mxCell id="peaKFF1j2xQkg63rvkMD-84" value="" style="shape=partialRectangle;collapsible=0;dropTarget=0;pointerEvents=0;fillColor=none;points=[[0,0.5],[1,0.5]];portConstraint=eastwest;top=0;left=0;right=0;bottom=1;fontFamily=Verdana;fontSize=15;rounded=1;textDirection=ltr;" parent="peaKFF1j2xQkg63rvkMD-83" vertex="1">
          <mxGeometry y="40" width="250" height="40" as="geometry" />
        </mxCell>
        <mxCell id="peaKFF1j2xQkg63rvkMD-85" value="FK2" style="shape=partialRectangle;overflow=hidden;connectable=0;fillColor=none;top=0;left=0;bottom=0;right=0;fontStyle=1;fontFamily=Verdana;fontSize=15;rounded=1;textDirection=ltr;" parent="peaKFF1j2xQkg63rvkMD-84" vertex="1">
          <mxGeometry width="50" height="40" as="geometry" />
        </mxCell>
        <mxCell id="peaKFF1j2xQkg63rvkMD-86" value="CodPeríodo" style="shape=partialRectangle;overflow=hidden;connectable=0;fillColor=none;top=0;left=0;bottom=0;right=0;align=left;spacingLeft=6;fontStyle=5;fontFamily=Verdana;fontSize=15;rounded=1;textDirection=ltr;" parent="peaKFF1j2xQkg63rvkMD-84" vertex="1">
          <mxGeometry x="50" width="200" height="40" as="geometry" />
        </mxCell>
        <mxCell id="CNr6qrwwwbzCUoEsULPP-190" value="" style="shape=partialRectangle;collapsible=0;dropTarget=0;pointerEvents=0;fillColor=none;points=[[0,0.5],[1,0.5]];portConstraint=eastwest;top=0;left=0;right=0;bottom=1;fontFamily=Verdana;fontSize=15;rounded=1;textDirection=ltr;" parent="peaKFF1j2xQkg63rvkMD-83" vertex="1">
          <mxGeometry y="80" width="250" height="40" as="geometry" />
        </mxCell>
        <mxCell id="CNr6qrwwwbzCUoEsULPP-191" value="PK-FK1" style="shape=partialRectangle;overflow=hidden;connectable=0;fillColor=none;top=0;left=0;bottom=0;right=0;fontStyle=1;fontFamily=Verdana;fontSize=15;rounded=1;textDirection=ltr;" parent="CNr6qrwwwbzCUoEsULPP-190" vertex="1">
          <mxGeometry width="50" height="40" as="geometry" />
        </mxCell>
        <mxCell id="CNr6qrwwwbzCUoEsULPP-192" value="NroHotel" style="shape=partialRectangle;overflow=hidden;connectable=0;fillColor=none;top=0;left=0;bottom=0;right=0;align=left;spacingLeft=6;fontStyle=5;fontFamily=Verdana;fontSize=15;rounded=1;textDirection=ltr;" parent="CNr6qrwwwbzCUoEsULPP-190" vertex="1">
          <mxGeometry x="50" width="200" height="40" as="geometry" />
        </mxCell>
        <mxCell id="CNr6qrwwwbzCUoEsULPP-120" value="" style="shape=partialRectangle;collapsible=0;dropTarget=0;pointerEvents=0;fillColor=none;points=[[0,0.5],[1,0.5]];portConstraint=eastwest;top=0;left=0;right=0;bottom=1;fontFamily=Verdana;fontSize=15;rounded=1;textDirection=ltr;" parent="peaKFF1j2xQkg63rvkMD-83" vertex="1">
          <mxGeometry y="120" width="250" height="40" as="geometry" />
        </mxCell>
        <mxCell id="CNr6qrwwwbzCUoEsULPP-121" value="PK-FK1" style="shape=partialRectangle;overflow=hidden;connectable=0;fillColor=none;top=0;left=0;bottom=0;right=0;fontStyle=1;fontFamily=Verdana;fontSize=15;rounded=1;textDirection=ltr;" parent="CNr6qrwwwbzCUoEsULPP-120" vertex="1">
          <mxGeometry width="50" height="40" as="geometry" />
        </mxCell>
        <mxCell id="CNr6qrwwwbzCUoEsULPP-122" value="Nro Habitacion" style="shape=partialRectangle;overflow=hidden;connectable=0;fillColor=none;top=0;left=0;bottom=0;right=0;align=left;spacingLeft=6;fontStyle=5;fontFamily=Verdana;fontSize=15;rounded=1;textDirection=ltr;" parent="CNr6qrwwwbzCUoEsULPP-120" vertex="1">
          <mxGeometry x="50" width="200" height="40" as="geometry" />
        </mxCell>
        <mxCell id="CNr6qrwwwbzCUoEsULPP-123" value="" style="shape=partialRectangle;collapsible=0;dropTarget=0;pointerEvents=0;fillColor=none;points=[[0,0.5],[1,0.5]];portConstraint=eastwest;top=0;left=0;right=0;bottom=1;fontFamily=Verdana;fontSize=15;rounded=1;textDirection=ltr;" parent="peaKFF1j2xQkg63rvkMD-83" vertex="1">
          <mxGeometry y="160" width="250" height="40" as="geometry" />
        </mxCell>
        <mxCell id="CNr6qrwwwbzCUoEsULPP-124" value="PK-FK1" style="shape=partialRectangle;overflow=hidden;connectable=0;fillColor=none;top=0;left=0;bottom=0;right=0;fontStyle=1;fontFamily=Verdana;fontSize=15;rounded=1;textDirection=ltr;" parent="CNr6qrwwwbzCUoEsULPP-123" vertex="1">
          <mxGeometry width="50" height="40" as="geometry" />
        </mxCell>
        <mxCell id="CNr6qrwwwbzCUoEsULPP-125" value="NroPaís" style="shape=partialRectangle;overflow=hidden;connectable=0;fillColor=none;top=0;left=0;bottom=0;right=0;align=left;spacingLeft=6;fontStyle=5;fontFamily=Verdana;fontSize=15;rounded=1;textDirection=ltr;" parent="CNr6qrwwwbzCUoEsULPP-123" vertex="1">
          <mxGeometry x="50" width="200" height="40" as="geometry" />
        </mxCell>
        <mxCell id="CNr6qrwwwbzCUoEsULPP-126" value="" style="shape=partialRectangle;collapsible=0;dropTarget=0;pointerEvents=0;fillColor=none;points=[[0,0.5],[1,0.5]];portConstraint=eastwest;top=0;left=0;right=0;bottom=1;fontFamily=Verdana;fontSize=15;rounded=1;textDirection=ltr;" parent="peaKFF1j2xQkg63rvkMD-83" vertex="1">
          <mxGeometry y="200" width="250" height="40" as="geometry" />
        </mxCell>
        <mxCell id="CNr6qrwwwbzCUoEsULPP-127" value="PK-FK1" style="shape=partialRectangle;overflow=hidden;connectable=0;fillColor=none;top=0;left=0;bottom=0;right=0;fontStyle=1;fontFamily=Verdana;fontSize=15;rounded=1;textDirection=ltr;" parent="CNr6qrwwwbzCUoEsULPP-126" vertex="1">
          <mxGeometry width="50" height="40" as="geometry" />
        </mxCell>
        <mxCell id="CNr6qrwwwbzCUoEsULPP-128" value="NroCiudad" style="shape=partialRectangle;overflow=hidden;connectable=0;fillColor=none;top=0;left=0;bottom=0;right=0;align=left;spacingLeft=6;fontStyle=5;fontFamily=Verdana;fontSize=15;rounded=1;textDirection=ltr;" parent="CNr6qrwwwbzCUoEsULPP-126" vertex="1">
          <mxGeometry x="50" width="200" height="40" as="geometry" />
        </mxCell>
        <mxCell id="CNr6qrwwwbzCUoEsULPP-129" value="" style="shape=partialRectangle;collapsible=0;dropTarget=0;pointerEvents=0;fillColor=none;points=[[0,0.5],[1,0.5]];portConstraint=eastwest;top=0;left=0;right=0;bottom=1;fontFamily=Verdana;fontSize=15;rounded=1;textDirection=ltr;" parent="peaKFF1j2xQkg63rvkMD-83" vertex="1">
          <mxGeometry y="240" width="250" height="40" as="geometry" />
        </mxCell>
        <mxCell id="CNr6qrwwwbzCUoEsULPP-130" value="PK-FK1" style="shape=partialRectangle;overflow=hidden;connectable=0;fillColor=none;top=0;left=0;bottom=0;right=0;fontStyle=1;fontFamily=Verdana;fontSize=15;rounded=1;textDirection=ltr;" parent="CNr6qrwwwbzCUoEsULPP-129" vertex="1">
          <mxGeometry width="50" height="40" as="geometry" />
        </mxCell>
        <mxCell id="CNr6qrwwwbzCUoEsULPP-131" value="NroZona" style="shape=partialRectangle;overflow=hidden;connectable=0;fillColor=none;top=0;left=0;bottom=0;right=0;align=left;spacingLeft=6;fontStyle=5;fontFamily=Verdana;fontSize=15;rounded=1;textDirection=ltr;" parent="CNr6qrwwwbzCUoEsULPP-129" vertex="1">
          <mxGeometry x="50" width="200" height="40" as="geometry" />
        </mxCell>
        <mxCell id="WGjpE4m-nX1BgtbId8Ap-45" value="" style="shape=partialRectangle;collapsible=0;dropTarget=0;pointerEvents=0;fillColor=none;points=[[0,0.5],[1,0.5]];portConstraint=eastwest;top=0;left=0;right=0;bottom=1;fontFamily=Verdana;fontSize=15;rounded=1;textDirection=ltr;" parent="peaKFF1j2xQkg63rvkMD-83" vertex="1">
          <mxGeometry y="280" width="250" height="40" as="geometry" />
        </mxCell>
        <mxCell id="WGjpE4m-nX1BgtbId8Ap-46" value="" style="shape=partialRectangle;overflow=hidden;connectable=0;fillColor=none;top=0;left=0;bottom=0;right=0;fontStyle=1;fontFamily=Verdana;fontSize=15;rounded=1;textDirection=ltr;" parent="WGjpE4m-nX1BgtbId8Ap-45" vertex="1">
          <mxGeometry width="50" height="40" as="geometry" />
        </mxCell>
        <mxCell id="WGjpE4m-nX1BgtbId8Ap-47" value="Porc. de ajuste" style="shape=partialRectangle;overflow=hidden;connectable=0;fillColor=none;top=0;left=0;bottom=0;right=0;align=left;spacingLeft=6;fontStyle=5;fontFamily=Verdana;fontSize=15;rounded=1;textDirection=ltr;" parent="WGjpE4m-nX1BgtbId8Ap-45" vertex="1">
          <mxGeometry x="50" width="200" height="40" as="geometry" />
        </mxCell>
        <mxCell id="CNr6qrwwwbzCUoEsULPP-4" value="Países" style="shape=table;startSize=40;container=1;collapsible=1;childLayout=tableLayout;fixedRows=1;rowLines=0;fontStyle=1;align=center;resizeLast=1;fontFamily=Verdana;fontSize=15;rounded=1;textDirection=ltr;" parent="1" vertex="1">
          <mxGeometry x="980" y="520" width="250" height="120" as="geometry" />
        </mxCell>
        <mxCell id="CNr6qrwwwbzCUoEsULPP-5" value="" style="shape=partialRectangle;collapsible=0;dropTarget=0;pointerEvents=0;fillColor=none;points=[[0,0.5],[1,0.5]];portConstraint=eastwest;top=0;left=0;right=0;bottom=1;fontFamily=Verdana;fontSize=15;rounded=1;textDirection=ltr;" parent="CNr6qrwwwbzCUoEsULPP-4" vertex="1">
          <mxGeometry y="40" width="250" height="40" as="geometry" />
        </mxCell>
        <mxCell id="CNr6qrwwwbzCUoEsULPP-6" value="PK" style="shape=partialRectangle;overflow=hidden;connectable=0;fillColor=none;top=0;left=0;bottom=0;right=0;fontStyle=1;fontFamily=Verdana;fontSize=15;rounded=1;textDirection=ltr;" parent="CNr6qrwwwbzCUoEsULPP-5" vertex="1">
          <mxGeometry width="30" height="40" as="geometry" />
        </mxCell>
        <mxCell id="CNr6qrwwwbzCUoEsULPP-7" value="Nro País" style="shape=partialRectangle;overflow=hidden;connectable=0;fillColor=none;top=0;left=0;bottom=0;right=0;align=left;spacingLeft=6;fontStyle=5;fontFamily=Verdana;fontSize=15;rounded=1;textDirection=ltr;" parent="CNr6qrwwwbzCUoEsULPP-5" vertex="1">
          <mxGeometry x="30" width="220" height="40" as="geometry" />
        </mxCell>
        <mxCell id="CNr6qrwwwbzCUoEsULPP-8" value="" style="shape=partialRectangle;collapsible=0;dropTarget=0;pointerEvents=0;fillColor=none;points=[[0,0.5],[1,0.5]];portConstraint=eastwest;top=0;left=0;right=0;bottom=0;fontFamily=Verdana;fontSize=15;rounded=1;textDirection=ltr;" parent="CNr6qrwwwbzCUoEsULPP-4" vertex="1">
          <mxGeometry y="80" width="250" height="40" as="geometry" />
        </mxCell>
        <mxCell id="CNr6qrwwwbzCUoEsULPP-9" value="" style="shape=partialRectangle;overflow=hidden;connectable=0;fillColor=none;top=0;left=0;bottom=0;right=0;fontFamily=Verdana;fontSize=15;rounded=1;textDirection=ltr;" parent="CNr6qrwwwbzCUoEsULPP-8" vertex="1">
          <mxGeometry width="30" height="40" as="geometry" />
        </mxCell>
        <mxCell id="CNr6qrwwwbzCUoEsULPP-10" value="NombrePais" style="shape=partialRectangle;overflow=hidden;connectable=0;fillColor=none;top=0;left=0;bottom=0;right=0;align=left;spacingLeft=6;fontFamily=Verdana;fontSize=15;rounded=1;textDirection=ltr;" parent="CNr6qrwwwbzCUoEsULPP-8" vertex="1">
          <mxGeometry x="30" width="220" height="40" as="geometry" />
        </mxCell>
        <mxCell id="CNr6qrwwwbzCUoEsULPP-31" value="Facilidades_X_Hotel" style="shape=table;startSize=40;container=1;collapsible=1;childLayout=tableLayout;fixedRows=1;rowLines=0;fontStyle=1;align=center;resizeLast=1;fontFamily=Verdana;fontSize=15;rounded=1;textDirection=ltr;" parent="1" vertex="1">
          <mxGeometry x="175" y="20" width="250" height="280" as="geometry" />
        </mxCell>
        <mxCell id="CNr6qrwwwbzCUoEsULPP-66" value="" style="shape=partialRectangle;collapsible=0;dropTarget=0;pointerEvents=0;fillColor=none;points=[[0,0.5],[1,0.5]];portConstraint=eastwest;top=0;left=0;right=0;bottom=1;fontFamily=Verdana;fontSize=15;rounded=1;textDirection=ltr;" parent="CNr6qrwwwbzCUoEsULPP-31" vertex="1">
          <mxGeometry y="40" width="250" height="40" as="geometry" />
        </mxCell>
        <mxCell id="CNr6qrwwwbzCUoEsULPP-67" value="PK-FK2" style="shape=partialRectangle;overflow=hidden;connectable=0;fillColor=none;top=0;left=0;bottom=0;right=0;fontStyle=1;fontFamily=Verdana;fontSize=15;rounded=1;textDirection=ltr;" parent="CNr6qrwwwbzCUoEsULPP-66" vertex="1">
          <mxGeometry width="65" height="40" as="geometry" />
        </mxCell>
        <mxCell id="CNr6qrwwwbzCUoEsULPP-68" value="NroFacilidad" style="shape=partialRectangle;overflow=hidden;connectable=0;fillColor=none;top=0;left=0;bottom=0;right=0;align=left;spacingLeft=6;fontStyle=5;fontFamily=Verdana;fontSize=15;rounded=1;textDirection=ltr;" parent="CNr6qrwwwbzCUoEsULPP-66" vertex="1">
          <mxGeometry x="65" width="185" height="40" as="geometry" />
        </mxCell>
        <mxCell id="CNr6qrwwwbzCUoEsULPP-32" value="" style="shape=partialRectangle;collapsible=0;dropTarget=0;pointerEvents=0;fillColor=none;points=[[0,0.5],[1,0.5]];portConstraint=eastwest;top=0;left=0;right=0;bottom=1;fontFamily=Verdana;fontSize=15;rounded=1;textDirection=ltr;" parent="CNr6qrwwwbzCUoEsULPP-31" vertex="1">
          <mxGeometry y="80" width="250" height="40" as="geometry" />
        </mxCell>
        <mxCell id="CNr6qrwwwbzCUoEsULPP-33" value="PK-FK1" style="shape=partialRectangle;overflow=hidden;connectable=0;fillColor=none;top=0;left=0;bottom=0;right=0;fontStyle=1;fontFamily=Verdana;fontSize=15;rounded=1;textDirection=ltr;" parent="CNr6qrwwwbzCUoEsULPP-32" vertex="1">
          <mxGeometry width="65" height="40" as="geometry" />
        </mxCell>
        <mxCell id="CNr6qrwwwbzCUoEsULPP-34" value="NroHotel" style="shape=partialRectangle;overflow=hidden;connectable=0;fillColor=none;top=0;left=0;bottom=0;right=0;align=left;spacingLeft=6;fontStyle=5;fontFamily=Verdana;fontSize=15;rounded=1;textDirection=ltr;" parent="CNr6qrwwwbzCUoEsULPP-32" vertex="1">
          <mxGeometry x="65" width="185" height="40" as="geometry" />
        </mxCell>
        <mxCell id="0vbI861UmPsHp6fMAkOY-1" value="" style="shape=partialRectangle;collapsible=0;dropTarget=0;pointerEvents=0;fillColor=none;points=[[0,0.5],[1,0.5]];portConstraint=eastwest;top=0;left=0;right=0;bottom=1;fontFamily=Verdana;fontSize=15;rounded=1;textDirection=ltr;" parent="CNr6qrwwwbzCUoEsULPP-31" vertex="1">
          <mxGeometry y="120" width="250" height="40" as="geometry" />
        </mxCell>
        <mxCell id="0vbI861UmPsHp6fMAkOY-2" value="PK-FK1" style="shape=partialRectangle;overflow=hidden;connectable=0;fillColor=none;top=0;left=0;bottom=0;right=0;fontStyle=1;fontFamily=Verdana;fontSize=15;rounded=1;textDirection=ltr;" parent="0vbI861UmPsHp6fMAkOY-1" vertex="1">
          <mxGeometry width="65" height="40" as="geometry" />
        </mxCell>
        <mxCell id="0vbI861UmPsHp6fMAkOY-3" value="NroHabitacion" style="shape=partialRectangle;overflow=hidden;connectable=0;fillColor=none;top=0;left=0;bottom=0;right=0;align=left;spacingLeft=6;fontStyle=5;fontFamily=Verdana;fontSize=15;rounded=1;textDirection=ltr;" parent="0vbI861UmPsHp6fMAkOY-1" vertex="1">
          <mxGeometry x="65" width="185" height="40" as="geometry" />
        </mxCell>
        <mxCell id="CNr6qrwwwbzCUoEsULPP-35" value="" style="shape=partialRectangle;collapsible=0;dropTarget=0;pointerEvents=0;fillColor=none;points=[[0,0.5],[1,0.5]];portConstraint=eastwest;top=0;left=0;right=0;bottom=1;fontFamily=Verdana;fontSize=15;rounded=1;textDirection=ltr;" parent="CNr6qrwwwbzCUoEsULPP-31" vertex="1">
          <mxGeometry y="160" width="250" height="40" as="geometry" />
        </mxCell>
        <mxCell id="CNr6qrwwwbzCUoEsULPP-36" value="PK-FK1" style="shape=partialRectangle;overflow=hidden;connectable=0;fillColor=none;top=0;left=0;bottom=0;right=0;fontStyle=1;fontFamily=Verdana;fontSize=15;rounded=1;textDirection=ltr;" parent="CNr6qrwwwbzCUoEsULPP-35" vertex="1">
          <mxGeometry width="65" height="40" as="geometry" />
        </mxCell>
        <mxCell id="CNr6qrwwwbzCUoEsULPP-37" value="NroZona" style="shape=partialRectangle;overflow=hidden;connectable=0;fillColor=none;top=0;left=0;bottom=0;right=0;align=left;spacingLeft=6;fontStyle=5;fontFamily=Verdana;fontSize=15;rounded=1;textDirection=ltr;" parent="CNr6qrwwwbzCUoEsULPP-35" vertex="1">
          <mxGeometry x="65" width="185" height="40" as="geometry" />
        </mxCell>
        <mxCell id="CNr6qrwwwbzCUoEsULPP-60" value="" style="shape=partialRectangle;collapsible=0;dropTarget=0;pointerEvents=0;fillColor=none;points=[[0,0.5],[1,0.5]];portConstraint=eastwest;top=0;left=0;right=0;bottom=1;fontFamily=Verdana;fontSize=15;rounded=1;textDirection=ltr;" parent="CNr6qrwwwbzCUoEsULPP-31" vertex="1">
          <mxGeometry y="200" width="250" height="40" as="geometry" />
        </mxCell>
        <mxCell id="CNr6qrwwwbzCUoEsULPP-61" value="PK-FK1" style="shape=partialRectangle;overflow=hidden;connectable=0;fillColor=none;top=0;left=0;bottom=0;right=0;fontStyle=1;fontFamily=Verdana;fontSize=15;rounded=1;textDirection=ltr;" parent="CNr6qrwwwbzCUoEsULPP-60" vertex="1">
          <mxGeometry width="65" height="40" as="geometry" />
        </mxCell>
        <mxCell id="CNr6qrwwwbzCUoEsULPP-62" value="NroCiudad" style="shape=partialRectangle;overflow=hidden;connectable=0;fillColor=none;top=0;left=0;bottom=0;right=0;align=left;spacingLeft=6;fontStyle=5;fontFamily=Verdana;fontSize=15;rounded=1;textDirection=ltr;" parent="CNr6qrwwwbzCUoEsULPP-60" vertex="1">
          <mxGeometry x="65" width="185" height="40" as="geometry" />
        </mxCell>
        <mxCell id="CNr6qrwwwbzCUoEsULPP-63" value="" style="shape=partialRectangle;collapsible=0;dropTarget=0;pointerEvents=0;fillColor=none;points=[[0,0.5],[1,0.5]];portConstraint=eastwest;top=0;left=0;right=0;bottom=1;fontFamily=Verdana;fontSize=15;rounded=1;textDirection=ltr;" parent="CNr6qrwwwbzCUoEsULPP-31" vertex="1">
          <mxGeometry y="240" width="250" height="40" as="geometry" />
        </mxCell>
        <mxCell id="CNr6qrwwwbzCUoEsULPP-64" value="PK-FK1" style="shape=partialRectangle;overflow=hidden;connectable=0;fillColor=none;top=0;left=0;bottom=0;right=0;fontStyle=1;fontFamily=Verdana;fontSize=15;rounded=1;textDirection=ltr;" parent="CNr6qrwwwbzCUoEsULPP-63" vertex="1">
          <mxGeometry width="65" height="40" as="geometry" />
        </mxCell>
        <mxCell id="CNr6qrwwwbzCUoEsULPP-65" value="NroPaís" style="shape=partialRectangle;overflow=hidden;connectable=0;fillColor=none;top=0;left=0;bottom=0;right=0;align=left;spacingLeft=6;fontStyle=5;fontFamily=Verdana;fontSize=15;rounded=1;textDirection=ltr;" parent="CNr6qrwwwbzCUoEsULPP-63" vertex="1">
          <mxGeometry x="65" width="185" height="40" as="geometry" />
        </mxCell>
        <mxCell id="CNr6qrwwwbzCUoEsULPP-94" value="FacilidadesHotel" style="shape=table;startSize=40;container=1;collapsible=1;childLayout=tableLayout;fixedRows=1;rowLines=0;fontStyle=1;align=center;resizeLast=1;fontFamily=Verdana;fontSize=15;rounded=1;textDirection=ltr;" parent="1" vertex="1">
          <mxGeometry x="640" y="60" width="240" height="120" as="geometry" />
        </mxCell>
        <mxCell id="CNr6qrwwwbzCUoEsULPP-95" value="" style="shape=partialRectangle;collapsible=0;dropTarget=0;pointerEvents=0;fillColor=none;points=[[0,0.5],[1,0.5]];portConstraint=eastwest;top=0;left=0;right=0;bottom=1;fontFamily=Verdana;fontSize=15;rounded=1;textDirection=ltr;" parent="CNr6qrwwwbzCUoEsULPP-94" vertex="1">
          <mxGeometry y="40" width="240" height="40" as="geometry" />
        </mxCell>
        <mxCell id="CNr6qrwwwbzCUoEsULPP-96" value="PK" style="shape=partialRectangle;overflow=hidden;connectable=0;fillColor=none;top=0;left=0;bottom=0;right=0;fontStyle=1;fontFamily=Verdana;fontSize=15;rounded=1;textDirection=ltr;" parent="CNr6qrwwwbzCUoEsULPP-95" vertex="1">
          <mxGeometry width="40" height="40" as="geometry" />
        </mxCell>
        <mxCell id="CNr6qrwwwbzCUoEsULPP-97" value="NroFacilidad" style="shape=partialRectangle;overflow=hidden;connectable=0;fillColor=none;top=0;left=0;bottom=0;right=0;align=left;spacingLeft=6;fontStyle=5;fontFamily=Verdana;fontSize=15;rounded=1;textDirection=ltr;" parent="CNr6qrwwwbzCUoEsULPP-95" vertex="1">
          <mxGeometry x="40" width="200" height="40" as="geometry" />
        </mxCell>
        <mxCell id="CNr6qrwwwbzCUoEsULPP-110" value="" style="shape=partialRectangle;collapsible=0;dropTarget=0;pointerEvents=0;fillColor=none;points=[[0,0.5],[1,0.5]];portConstraint=eastwest;top=0;left=0;right=0;bottom=0;fontFamily=Verdana;fontSize=15;rounded=1;textDirection=ltr;" parent="CNr6qrwwwbzCUoEsULPP-94" vertex="1">
          <mxGeometry y="80" width="240" height="40" as="geometry" />
        </mxCell>
        <mxCell id="CNr6qrwwwbzCUoEsULPP-111" value="" style="shape=partialRectangle;overflow=hidden;connectable=0;fillColor=none;top=0;left=0;bottom=0;right=0;fontFamily=Verdana;fontSize=15;rounded=1;textDirection=ltr;" parent="CNr6qrwwwbzCUoEsULPP-110" vertex="1">
          <mxGeometry width="40" height="40" as="geometry" />
        </mxCell>
        <mxCell id="CNr6qrwwwbzCUoEsULPP-112" value="DescripCion Facilidades" style="shape=partialRectangle;overflow=hidden;connectable=0;fillColor=none;top=0;left=0;bottom=0;right=0;align=left;spacingLeft=6;fontFamily=Verdana;fontSize=15;rounded=1;textDirection=ltr;" parent="CNr6qrwwwbzCUoEsULPP-110" vertex="1">
          <mxGeometry x="40" width="200" height="40" as="geometry" />
        </mxCell>
        <mxCell id="CNr6qrwwwbzCUoEsULPP-113" value="Categorías" style="shape=table;startSize=40;container=1;collapsible=1;childLayout=tableLayout;fixedRows=1;rowLines=0;fontStyle=1;align=center;resizeLast=1;fontFamily=Verdana;fontSize=15;rounded=1;textDirection=ltr;" parent="1" vertex="1">
          <mxGeometry x="-580" y="590" width="240" height="120" as="geometry" />
        </mxCell>
        <mxCell id="CNr6qrwwwbzCUoEsULPP-114" value="" style="shape=partialRectangle;collapsible=0;dropTarget=0;pointerEvents=0;fillColor=none;points=[[0,0.5],[1,0.5]];portConstraint=eastwest;top=0;left=0;right=0;bottom=1;fontFamily=Verdana;fontSize=15;rounded=1;textDirection=ltr;" parent="CNr6qrwwwbzCUoEsULPP-113" vertex="1">
          <mxGeometry y="40" width="240" height="40" as="geometry" />
        </mxCell>
        <mxCell id="CNr6qrwwwbzCUoEsULPP-115" value="PK" style="shape=partialRectangle;overflow=hidden;connectable=0;fillColor=none;top=0;left=0;bottom=0;right=0;fontStyle=1;fontFamily=Verdana;fontSize=15;rounded=1;textDirection=ltr;" parent="CNr6qrwwwbzCUoEsULPP-114" vertex="1">
          <mxGeometry width="40" height="40" as="geometry" />
        </mxCell>
        <mxCell id="CNr6qrwwwbzCUoEsULPP-116" value="codCategoría" style="shape=partialRectangle;overflow=hidden;connectable=0;fillColor=none;top=0;left=0;bottom=0;right=0;align=left;spacingLeft=6;fontStyle=5;fontFamily=Verdana;fontSize=15;rounded=1;textDirection=ltr;" parent="CNr6qrwwwbzCUoEsULPP-114" vertex="1">
          <mxGeometry x="40" width="200" height="40" as="geometry" />
        </mxCell>
        <mxCell id="CNr6qrwwwbzCUoEsULPP-117" value="" style="shape=partialRectangle;collapsible=0;dropTarget=0;pointerEvents=0;fillColor=none;points=[[0,0.5],[1,0.5]];portConstraint=eastwest;top=0;left=0;right=0;bottom=0;fontFamily=Verdana;fontSize=15;rounded=1;textDirection=ltr;" parent="CNr6qrwwwbzCUoEsULPP-113" vertex="1">
          <mxGeometry y="80" width="240" height="40" as="geometry" />
        </mxCell>
        <mxCell id="CNr6qrwwwbzCUoEsULPP-118" value="" style="shape=partialRectangle;overflow=hidden;connectable=0;fillColor=none;top=0;left=0;bottom=0;right=0;fontFamily=Verdana;fontSize=15;rounded=1;textDirection=ltr;" parent="CNr6qrwwwbzCUoEsULPP-117" vertex="1">
          <mxGeometry width="40" height="40" as="geometry" />
        </mxCell>
        <mxCell id="CNr6qrwwwbzCUoEsULPP-119" value="DescripcionCategoría" style="shape=partialRectangle;overflow=hidden;connectable=0;fillColor=none;top=0;left=0;bottom=0;right=0;align=left;spacingLeft=6;fontFamily=Verdana;fontSize=15;rounded=1;textDirection=ltr;" parent="CNr6qrwwwbzCUoEsULPP-117" vertex="1">
          <mxGeometry x="40" width="200" height="40" as="geometry" />
        </mxCell>
        <mxCell id="CNr6qrwwwbzCUoEsULPP-132" value="Disponibilidad" style="shape=table;startSize=40;container=1;collapsible=1;childLayout=tableLayout;fixedRows=1;rowLines=0;fontStyle=1;align=center;resizeLast=1;fontFamily=Verdana;fontSize=15;rounded=1;textDirection=ltr;" parent="1" vertex="1">
          <mxGeometry x="950" y="680" width="250" height="360" as="geometry" />
        </mxCell>
        <mxCell id="CNr6qrwwwbzCUoEsULPP-136" value="" style="shape=partialRectangle;collapsible=0;dropTarget=0;pointerEvents=0;fillColor=none;points=[[0,0.5],[1,0.5]];portConstraint=eastwest;top=0;left=0;right=0;bottom=1;fontFamily=Verdana;fontSize=15;rounded=1;textDirection=ltr;" parent="CNr6qrwwwbzCUoEsULPP-132" vertex="1">
          <mxGeometry y="40" width="250" height="40" as="geometry" />
        </mxCell>
        <mxCell id="CNr6qrwwwbzCUoEsULPP-137" value="PK-FK1" style="shape=partialRectangle;overflow=hidden;connectable=0;fillColor=none;top=0;left=0;bottom=0;right=0;fontStyle=1;fontFamily=Verdana;fontSize=15;rounded=1;textDirection=ltr;" parent="CNr6qrwwwbzCUoEsULPP-136" vertex="1">
          <mxGeometry width="70" height="40" as="geometry" />
        </mxCell>
        <mxCell id="CNr6qrwwwbzCUoEsULPP-138" value="Nro Habitacion" style="shape=partialRectangle;overflow=hidden;connectable=0;fillColor=none;top=0;left=0;bottom=0;right=0;align=left;spacingLeft=6;fontStyle=5;fontFamily=Verdana;fontSize=15;rounded=1;textDirection=ltr;" parent="CNr6qrwwwbzCUoEsULPP-136" vertex="1">
          <mxGeometry x="70" width="180" height="40" as="geometry" />
        </mxCell>
        <mxCell id="CNr6qrwwwbzCUoEsULPP-139" value="" style="shape=partialRectangle;collapsible=0;dropTarget=0;pointerEvents=0;fillColor=none;points=[[0,0.5],[1,0.5]];portConstraint=eastwest;top=0;left=0;right=0;bottom=1;fontFamily=Verdana;fontSize=15;rounded=1;textDirection=ltr;" parent="CNr6qrwwwbzCUoEsULPP-132" vertex="1">
          <mxGeometry y="80" width="250" height="40" as="geometry" />
        </mxCell>
        <mxCell id="CNr6qrwwwbzCUoEsULPP-140" value="PK-FK1" style="shape=partialRectangle;overflow=hidden;connectable=0;fillColor=none;top=0;left=0;bottom=0;right=0;fontStyle=1;fontFamily=Verdana;fontSize=15;rounded=1;textDirection=ltr;" parent="CNr6qrwwwbzCUoEsULPP-139" vertex="1">
          <mxGeometry width="70" height="40" as="geometry" />
        </mxCell>
        <mxCell id="CNr6qrwwwbzCUoEsULPP-141" value="NroPaís" style="shape=partialRectangle;overflow=hidden;connectable=0;fillColor=none;top=0;left=0;bottom=0;right=0;align=left;spacingLeft=6;fontStyle=5;fontFamily=Verdana;fontSize=15;rounded=1;textDirection=ltr;" parent="CNr6qrwwwbzCUoEsULPP-139" vertex="1">
          <mxGeometry x="70" width="180" height="40" as="geometry" />
        </mxCell>
        <mxCell id="CNr6qrwwwbzCUoEsULPP-142" value="" style="shape=partialRectangle;collapsible=0;dropTarget=0;pointerEvents=0;fillColor=none;points=[[0,0.5],[1,0.5]];portConstraint=eastwest;top=0;left=0;right=0;bottom=1;fontFamily=Verdana;fontSize=15;rounded=1;textDirection=ltr;" parent="CNr6qrwwwbzCUoEsULPP-132" vertex="1">
          <mxGeometry y="120" width="250" height="40" as="geometry" />
        </mxCell>
        <mxCell id="CNr6qrwwwbzCUoEsULPP-143" value="PK-FK1" style="shape=partialRectangle;overflow=hidden;connectable=0;fillColor=none;top=0;left=0;bottom=0;right=0;fontStyle=1;fontFamily=Verdana;fontSize=15;rounded=1;textDirection=ltr;" parent="CNr6qrwwwbzCUoEsULPP-142" vertex="1">
          <mxGeometry width="70" height="40" as="geometry" />
        </mxCell>
        <mxCell id="CNr6qrwwwbzCUoEsULPP-144" value="NroCiudad" style="shape=partialRectangle;overflow=hidden;connectable=0;fillColor=none;top=0;left=0;bottom=0;right=0;align=left;spacingLeft=6;fontStyle=5;fontFamily=Verdana;fontSize=15;rounded=1;textDirection=ltr;" parent="CNr6qrwwwbzCUoEsULPP-142" vertex="1">
          <mxGeometry x="70" width="180" height="40" as="geometry" />
        </mxCell>
        <mxCell id="CNr6qrwwwbzCUoEsULPP-145" value="" style="shape=partialRectangle;collapsible=0;dropTarget=0;pointerEvents=0;fillColor=none;points=[[0,0.5],[1,0.5]];portConstraint=eastwest;top=0;left=0;right=0;bottom=1;fontFamily=Verdana;fontSize=15;rounded=1;textDirection=ltr;" parent="CNr6qrwwwbzCUoEsULPP-132" vertex="1">
          <mxGeometry y="160" width="250" height="40" as="geometry" />
        </mxCell>
        <mxCell id="CNr6qrwwwbzCUoEsULPP-146" value="PK-FK1" style="shape=partialRectangle;overflow=hidden;connectable=0;fillColor=none;top=0;left=0;bottom=0;right=0;fontStyle=1;fontFamily=Verdana;fontSize=15;rounded=1;textDirection=ltr;" parent="CNr6qrwwwbzCUoEsULPP-145" vertex="1">
          <mxGeometry width="70" height="40" as="geometry" />
        </mxCell>
        <mxCell id="CNr6qrwwwbzCUoEsULPP-147" value="NroZona" style="shape=partialRectangle;overflow=hidden;connectable=0;fillColor=none;top=0;left=0;bottom=0;right=0;align=left;spacingLeft=6;fontStyle=5;fontFamily=Verdana;fontSize=15;rounded=1;textDirection=ltr;" parent="CNr6qrwwwbzCUoEsULPP-145" vertex="1">
          <mxGeometry x="70" width="180" height="40" as="geometry" />
        </mxCell>
        <mxCell id="CNr6qrwwwbzCUoEsULPP-157" value="" style="shape=partialRectangle;collapsible=0;dropTarget=0;pointerEvents=0;fillColor=none;points=[[0,0.5],[1,0.5]];portConstraint=eastwest;top=0;left=0;right=0;bottom=1;fontFamily=Verdana;fontSize=15;rounded=1;textDirection=ltr;" parent="CNr6qrwwwbzCUoEsULPP-132" vertex="1">
          <mxGeometry y="200" width="250" height="40" as="geometry" />
        </mxCell>
        <mxCell id="CNr6qrwwwbzCUoEsULPP-158" value="" style="shape=partialRectangle;overflow=hidden;connectable=0;fillColor=none;top=0;left=0;bottom=0;right=0;fontStyle=1;fontFamily=Verdana;fontSize=15;rounded=1;textDirection=ltr;" parent="CNr6qrwwwbzCUoEsULPP-157" vertex="1">
          <mxGeometry width="70" height="40" as="geometry" />
        </mxCell>
        <mxCell id="CNr6qrwwwbzCUoEsULPP-159" value="EstadoHabitacion" style="shape=partialRectangle;overflow=hidden;connectable=0;fillColor=none;top=0;left=0;bottom=0;right=0;align=left;spacingLeft=6;fontStyle=5;fontFamily=Verdana;fontSize=15;rounded=1;textDirection=ltr;" parent="CNr6qrwwwbzCUoEsULPP-157" vertex="1">
          <mxGeometry x="70" width="180" height="40" as="geometry" />
        </mxCell>
        <mxCell id="CNr6qrwwwbzCUoEsULPP-148" value="" style="shape=partialRectangle;collapsible=0;dropTarget=0;pointerEvents=0;fillColor=none;points=[[0,0.5],[1,0.5]];portConstraint=eastwest;top=0;left=0;right=0;bottom=0;fontFamily=Verdana;fontSize=15;rounded=1;textDirection=ltr;" parent="CNr6qrwwwbzCUoEsULPP-132" vertex="1">
          <mxGeometry y="240" width="250" height="40" as="geometry" />
        </mxCell>
        <mxCell id="CNr6qrwwwbzCUoEsULPP-149" value="PK" style="shape=partialRectangle;overflow=hidden;connectable=0;fillColor=none;top=0;left=0;bottom=0;right=0;fontFamily=Verdana;fontSize=15;rounded=1;textDirection=ltr;" parent="CNr6qrwwwbzCUoEsULPP-148" vertex="1">
          <mxGeometry width="70" height="40" as="geometry" />
        </mxCell>
        <mxCell id="CNr6qrwwwbzCUoEsULPP-150" value="Día" style="shape=partialRectangle;overflow=hidden;connectable=0;fillColor=none;top=0;left=0;bottom=0;right=0;align=left;spacingLeft=6;fontFamily=Verdana;fontSize=15;rounded=1;textDirection=ltr;" parent="CNr6qrwwwbzCUoEsULPP-148" vertex="1">
          <mxGeometry x="70" width="180" height="40" as="geometry" />
        </mxCell>
        <mxCell id="CNr6qrwwwbzCUoEsULPP-151" value="" style="shape=partialRectangle;collapsible=0;dropTarget=0;pointerEvents=0;fillColor=none;points=[[0,0.5],[1,0.5]];portConstraint=eastwest;top=0;left=0;right=0;bottom=0;fontFamily=Verdana;fontSize=15;rounded=1;textDirection=ltr;" parent="CNr6qrwwwbzCUoEsULPP-132" vertex="1">
          <mxGeometry y="280" width="250" height="40" as="geometry" />
        </mxCell>
        <mxCell id="CNr6qrwwwbzCUoEsULPP-152" value="PK" style="shape=partialRectangle;overflow=hidden;connectable=0;fillColor=none;top=0;left=0;bottom=0;right=0;fontFamily=Verdana;fontSize=15;rounded=1;textDirection=ltr;" parent="CNr6qrwwwbzCUoEsULPP-151" vertex="1">
          <mxGeometry width="70" height="40" as="geometry" />
        </mxCell>
        <mxCell id="CNr6qrwwwbzCUoEsULPP-153" value="Mes" style="shape=partialRectangle;overflow=hidden;connectable=0;fillColor=none;top=0;left=0;bottom=0;right=0;align=left;spacingLeft=6;fontFamily=Verdana;fontSize=15;rounded=1;textDirection=ltr;" parent="CNr6qrwwwbzCUoEsULPP-151" vertex="1">
          <mxGeometry x="70" width="180" height="40" as="geometry" />
        </mxCell>
        <mxCell id="CNr6qrwwwbzCUoEsULPP-154" value="" style="shape=partialRectangle;collapsible=0;dropTarget=0;pointerEvents=0;fillColor=none;points=[[0,0.5],[1,0.5]];portConstraint=eastwest;top=0;left=0;right=0;bottom=0;fontFamily=Verdana;fontSize=15;rounded=1;textDirection=ltr;" parent="CNr6qrwwwbzCUoEsULPP-132" vertex="1">
          <mxGeometry y="320" width="250" height="40" as="geometry" />
        </mxCell>
        <mxCell id="CNr6qrwwwbzCUoEsULPP-155" value="" style="shape=partialRectangle;overflow=hidden;connectable=0;fillColor=none;top=0;left=0;bottom=0;right=0;fontFamily=Verdana;fontSize=15;rounded=1;textDirection=ltr;" parent="CNr6qrwwwbzCUoEsULPP-154" vertex="1">
          <mxGeometry width="70" height="40" as="geometry" />
        </mxCell>
        <mxCell id="CNr6qrwwwbzCUoEsULPP-156" value="" style="shape=partialRectangle;overflow=hidden;connectable=0;fillColor=none;top=0;left=0;bottom=0;right=0;align=left;spacingLeft=6;fontFamily=Verdana;fontSize=15;rounded=1;textDirection=ltr;" parent="CNr6qrwwwbzCUoEsULPP-154" vertex="1">
          <mxGeometry x="70" width="180" height="40" as="geometry" />
        </mxCell>
        <mxCell id="CNr6qrwwwbzCUoEsULPP-160" value="TipoHabitacion" style="shape=table;startSize=40;container=1;collapsible=1;childLayout=tableLayout;fixedRows=1;rowLines=0;fontStyle=1;align=center;resizeLast=1;fontFamily=Verdana;fontSize=15;rounded=1;textDirection=ltr;" parent="1" vertex="1">
          <mxGeometry x="-620" y="880" width="250" height="120" as="geometry" />
        </mxCell>
        <mxCell id="CNr6qrwwwbzCUoEsULPP-161" value="" style="shape=partialRectangle;collapsible=0;dropTarget=0;pointerEvents=0;fillColor=none;points=[[0,0.5],[1,0.5]];portConstraint=eastwest;top=0;left=0;right=0;bottom=1;fontFamily=Verdana;fontSize=15;rounded=1;textDirection=ltr;" parent="CNr6qrwwwbzCUoEsULPP-160" vertex="1">
          <mxGeometry y="40" width="250" height="40" as="geometry" />
        </mxCell>
        <mxCell id="CNr6qrwwwbzCUoEsULPP-162" value="PK" style="shape=partialRectangle;overflow=hidden;connectable=0;fillColor=none;top=0;left=0;bottom=0;right=0;fontStyle=1;fontFamily=Verdana;fontSize=15;rounded=1;textDirection=ltr;" parent="CNr6qrwwwbzCUoEsULPP-161" vertex="1">
          <mxGeometry width="30" height="40" as="geometry" />
        </mxCell>
        <mxCell id="CNr6qrwwwbzCUoEsULPP-163" value="CodTipoHabitacion" style="shape=partialRectangle;overflow=hidden;connectable=0;fillColor=none;top=0;left=0;bottom=0;right=0;align=left;spacingLeft=6;fontStyle=5;fontFamily=Verdana;fontSize=15;rounded=1;textDirection=ltr;" parent="CNr6qrwwwbzCUoEsULPP-161" vertex="1">
          <mxGeometry x="30" width="220" height="40" as="geometry" />
        </mxCell>
        <mxCell id="CNr6qrwwwbzCUoEsULPP-164" value="" style="shape=partialRectangle;collapsible=0;dropTarget=0;pointerEvents=0;fillColor=none;points=[[0,0.5],[1,0.5]];portConstraint=eastwest;top=0;left=0;right=0;bottom=0;fontFamily=Verdana;fontSize=15;rounded=1;textDirection=ltr;" parent="CNr6qrwwwbzCUoEsULPP-160" vertex="1">
          <mxGeometry y="80" width="250" height="40" as="geometry" />
        </mxCell>
        <mxCell id="CNr6qrwwwbzCUoEsULPP-165" value="" style="shape=partialRectangle;overflow=hidden;connectable=0;fillColor=none;top=0;left=0;bottom=0;right=0;fontFamily=Verdana;fontSize=15;rounded=1;textDirection=ltr;" parent="CNr6qrwwwbzCUoEsULPP-164" vertex="1">
          <mxGeometry width="30" height="40" as="geometry" />
        </mxCell>
        <mxCell id="CNr6qrwwwbzCUoEsULPP-166" value="Descripcion Tipo Habitacion" style="shape=partialRectangle;overflow=hidden;connectable=0;fillColor=none;top=0;left=0;bottom=0;right=0;align=left;spacingLeft=6;fontFamily=Verdana;fontSize=15;rounded=1;textDirection=ltr;" parent="CNr6qrwwwbzCUoEsULPP-164" vertex="1">
          <mxGeometry x="30" width="220" height="40" as="geometry" />
        </mxCell>
        <mxCell id="0vbI861UmPsHp6fMAkOY-39" value="Períodos_x_temporada" style="shape=table;startSize=40;container=1;collapsible=1;childLayout=tableLayout;fixedRows=1;rowLines=0;fontStyle=1;align=center;resizeLast=1;fontFamily=Verdana;fontSize=15;rounded=1;textDirection=ltr;" parent="1" vertex="1">
          <mxGeometry x="900" y="1100" width="250" height="120" as="geometry" />
        </mxCell>
        <mxCell id="0vbI861UmPsHp6fMAkOY-40" value="" style="shape=partialRectangle;collapsible=0;dropTarget=0;pointerEvents=0;fillColor=none;points=[[0,0.5],[1,0.5]];portConstraint=eastwest;top=0;left=0;right=0;bottom=1;fontFamily=Verdana;fontSize=15;rounded=1;textDirection=ltr;" parent="0vbI861UmPsHp6fMAkOY-39" vertex="1">
          <mxGeometry y="40" width="250" height="40" as="geometry" />
        </mxCell>
        <mxCell id="0vbI861UmPsHp6fMAkOY-41" value="PK" style="shape=partialRectangle;overflow=hidden;connectable=0;fillColor=none;top=0;left=0;bottom=0;right=0;fontStyle=1;fontFamily=Verdana;fontSize=15;rounded=1;textDirection=ltr;" parent="0vbI861UmPsHp6fMAkOY-40" vertex="1">
          <mxGeometry width="30" height="40" as="geometry" />
        </mxCell>
        <mxCell id="0vbI861UmPsHp6fMAkOY-42" value="CodPeríodo" style="shape=partialRectangle;overflow=hidden;connectable=0;fillColor=none;top=0;left=0;bottom=0;right=0;align=left;spacingLeft=6;fontStyle=5;fontFamily=Verdana;fontSize=15;rounded=1;textDirection=ltr;" parent="0vbI861UmPsHp6fMAkOY-40" vertex="1">
          <mxGeometry x="30" width="220" height="40" as="geometry" />
        </mxCell>
        <mxCell id="0vbI861UmPsHp6fMAkOY-43" value="" style="shape=partialRectangle;collapsible=0;dropTarget=0;pointerEvents=0;fillColor=none;points=[[0,0.5],[1,0.5]];portConstraint=eastwest;top=0;left=0;right=0;bottom=0;fontFamily=Verdana;fontSize=15;rounded=1;textDirection=ltr;" parent="0vbI861UmPsHp6fMAkOY-39" vertex="1">
          <mxGeometry y="80" width="250" height="40" as="geometry" />
        </mxCell>
        <mxCell id="0vbI861UmPsHp6fMAkOY-44" value="" style="shape=partialRectangle;overflow=hidden;connectable=0;fillColor=none;top=0;left=0;bottom=0;right=0;fontFamily=Verdana;fontSize=15;rounded=1;textDirection=ltr;" parent="0vbI861UmPsHp6fMAkOY-43" vertex="1">
          <mxGeometry width="30" height="40" as="geometry" />
        </mxCell>
        <mxCell id="0vbI861UmPsHp6fMAkOY-45" value="Nombre Período" style="shape=partialRectangle;overflow=hidden;connectable=0;fillColor=none;top=0;left=0;bottom=0;right=0;align=left;spacingLeft=6;fontFamily=Verdana;fontSize=15;rounded=1;textDirection=ltr;" parent="0vbI861UmPsHp6fMAkOY-43" vertex="1">
          <mxGeometry x="30" width="220" height="40" as="geometry" />
        </mxCell>
        <mxCell id="JbCay_CWZVzBNDAwxFtf-40" value="" style="edgeStyle=entityRelationEdgeStyle;fontSize=15;html=1;endArrow=ERoneToMany;startArrow=ERmandOne;exitX=0;exitY=0.5;exitDx=0;exitDy=0;textDirection=ltr;" parent="1" source="CNr6qrwwwbzCUoEsULPP-120" target="C-vyLk0tnHw3VtMMgP7b-13" edge="1">
          <mxGeometry width="100" height="100" relative="1" as="geometry">
            <mxPoint x="650.0000000000005" y="1040" as="sourcePoint" />
            <mxPoint x="684.9999999999995" y="255" as="targetPoint" />
          </mxGeometry>
        </mxCell>
        <mxCell id="JbCay_CWZVzBNDAwxFtf-41" value="" style="edgeStyle=entityRelationEdgeStyle;fontSize=15;html=1;endArrow=ERoneToMany;startArrow=ERmandOne;exitX=0;exitY=0.5;exitDx=0;exitDy=0;textDirection=ltr;" parent="1" source="CNr6qrwwwbzCUoEsULPP-190" target="C-vyLk0tnHw3VtMMgP7b-23" edge="1">
          <mxGeometry width="100" height="100" relative="1" as="geometry">
            <mxPoint x="650.0000000000005" y="960" as="sourcePoint" />
            <mxPoint x="515" y="390" as="targetPoint" />
          </mxGeometry>
        </mxCell>
        <mxCell id="CNr6qrwwwbzCUoEsULPP-78" value="Zonas" style="shape=table;startSize=40;container=1;collapsible=1;childLayout=tableLayout;fixedRows=1;rowLines=0;fontStyle=1;align=center;resizeLast=1;fontFamily=Verdana;fontSize=15;rounded=1;textDirection=ltr;" parent="1" vertex="1">
          <mxGeometry x="30" y="340" width="250" height="200" as="geometry" />
        </mxCell>
        <mxCell id="CNr6qrwwwbzCUoEsULPP-88" value="" style="shape=partialRectangle;collapsible=0;dropTarget=0;pointerEvents=0;fillColor=none;points=[[0,0.5],[1,0.5]];portConstraint=eastwest;top=0;left=0;right=0;bottom=1;fontFamily=Verdana;fontSize=15;rounded=1;textDirection=ltr;" parent="CNr6qrwwwbzCUoEsULPP-78" vertex="1">
          <mxGeometry y="40" width="250" height="40" as="geometry" />
        </mxCell>
        <mxCell id="CNr6qrwwwbzCUoEsULPP-89" value="PK" style="shape=partialRectangle;overflow=hidden;connectable=0;fillColor=none;top=0;left=0;bottom=0;right=0;fontStyle=1;fontFamily=Verdana;fontSize=15;rounded=1;textDirection=ltr;" parent="CNr6qrwwwbzCUoEsULPP-88" vertex="1">
          <mxGeometry width="50" height="40" as="geometry" />
        </mxCell>
        <mxCell id="CNr6qrwwwbzCUoEsULPP-90" value="NroZona" style="shape=partialRectangle;overflow=hidden;connectable=0;fillColor=none;top=0;left=0;bottom=0;right=0;align=left;spacingLeft=6;fontStyle=5;fontFamily=Verdana;fontSize=15;rounded=1;textDirection=ltr;" parent="CNr6qrwwwbzCUoEsULPP-88" vertex="1">
          <mxGeometry x="50" width="200" height="40" as="geometry" />
        </mxCell>
        <mxCell id="CNr6qrwwwbzCUoEsULPP-79" value="" style="shape=partialRectangle;collapsible=0;dropTarget=0;pointerEvents=0;fillColor=none;points=[[0,0.5],[1,0.5]];portConstraint=eastwest;top=0;left=0;right=0;bottom=1;fontFamily=Verdana;fontSize=15;rounded=1;textDirection=ltr;" parent="CNr6qrwwwbzCUoEsULPP-78" vertex="1">
          <mxGeometry y="80" width="250" height="40" as="geometry" />
        </mxCell>
        <mxCell id="CNr6qrwwwbzCUoEsULPP-80" value="pk,fk" style="shape=partialRectangle;overflow=hidden;connectable=0;fillColor=none;top=0;left=0;bottom=0;right=0;fontStyle=1;fontFamily=Verdana;fontSize=15;rounded=1;textDirection=ltr;" parent="CNr6qrwwwbzCUoEsULPP-79" vertex="1">
          <mxGeometry width="50" height="40" as="geometry" />
        </mxCell>
        <mxCell id="CNr6qrwwwbzCUoEsULPP-81" value="Nro País" style="shape=partialRectangle;overflow=hidden;connectable=0;fillColor=none;top=0;left=0;bottom=0;right=0;align=left;spacingLeft=6;fontStyle=5;fontFamily=Verdana;fontSize=15;rounded=1;textDirection=ltr;" parent="CNr6qrwwwbzCUoEsULPP-79" vertex="1">
          <mxGeometry x="50" width="200" height="40" as="geometry" />
        </mxCell>
        <mxCell id="CNr6qrwwwbzCUoEsULPP-82" value="" style="shape=partialRectangle;collapsible=0;dropTarget=0;pointerEvents=0;fillColor=none;points=[[0,0.5],[1,0.5]];portConstraint=eastwest;top=0;left=0;right=0;bottom=1;fontFamily=Verdana;fontSize=15;rounded=1;textDirection=ltr;" parent="CNr6qrwwwbzCUoEsULPP-78" vertex="1">
          <mxGeometry y="120" width="250" height="40" as="geometry" />
        </mxCell>
        <mxCell id="CNr6qrwwwbzCUoEsULPP-83" value="pk,fk" style="shape=partialRectangle;overflow=hidden;connectable=0;fillColor=none;top=0;left=0;bottom=0;right=0;fontStyle=1;fontFamily=Verdana;fontSize=15;rounded=1;textDirection=ltr;" parent="CNr6qrwwwbzCUoEsULPP-82" vertex="1">
          <mxGeometry width="50" height="40" as="geometry" />
        </mxCell>
        <mxCell id="CNr6qrwwwbzCUoEsULPP-84" value="NroCiudad" style="shape=partialRectangle;overflow=hidden;connectable=0;fillColor=none;top=0;left=0;bottom=0;right=0;align=left;spacingLeft=6;fontStyle=5;fontFamily=Verdana;fontSize=15;rounded=1;textDirection=ltr;" parent="CNr6qrwwwbzCUoEsULPP-82" vertex="1">
          <mxGeometry x="50" width="200" height="40" as="geometry" />
        </mxCell>
        <mxCell id="CNr6qrwwwbzCUoEsULPP-85" value="" style="shape=partialRectangle;collapsible=0;dropTarget=0;pointerEvents=0;fillColor=none;points=[[0,0.5],[1,0.5]];portConstraint=eastwest;top=0;left=0;right=0;bottom=0;fontFamily=Verdana;fontSize=15;rounded=1;textDirection=ltr;" parent="CNr6qrwwwbzCUoEsULPP-78" vertex="1">
          <mxGeometry y="160" width="250" height="40" as="geometry" />
        </mxCell>
        <mxCell id="CNr6qrwwwbzCUoEsULPP-86" value="" style="shape=partialRectangle;overflow=hidden;connectable=0;fillColor=none;top=0;left=0;bottom=0;right=0;fontFamily=Verdana;fontSize=15;rounded=1;textDirection=ltr;" parent="CNr6qrwwwbzCUoEsULPP-85" vertex="1">
          <mxGeometry width="50" height="40" as="geometry" />
        </mxCell>
        <mxCell id="CNr6qrwwwbzCUoEsULPP-87" value="NombreZona" style="shape=partialRectangle;overflow=hidden;connectable=0;fillColor=none;top=0;left=0;bottom=0;right=0;align=left;spacingLeft=6;fontFamily=Verdana;fontSize=15;rounded=1;textDirection=ltr;" parent="CNr6qrwwwbzCUoEsULPP-85" vertex="1">
          <mxGeometry x="50" width="200" height="40" as="geometry" />
        </mxCell>
        <mxCell id="CNr6qrwwwbzCUoEsULPP-14" value="Ciudades" style="shape=table;startSize=50;container=1;collapsible=1;childLayout=tableLayout;fixedRows=1;rowLines=0;fontStyle=1;align=center;resizeLast=1;fontFamily=Verdana;fontSize=15;rounded=1;textDirection=ltr;" parent="1" vertex="1">
          <mxGeometry x="770" y="230" width="250" height="170" as="geometry" />
        </mxCell>
        <mxCell id="CNr6qrwwwbzCUoEsULPP-15" value="" style="shape=partialRectangle;collapsible=0;dropTarget=0;pointerEvents=0;fillColor=none;points=[[0,0.5],[1,0.5]];portConstraint=eastwest;top=0;left=0;right=0;bottom=1;fontFamily=Verdana;fontSize=15;rounded=1;textDirection=ltr;" parent="CNr6qrwwwbzCUoEsULPP-14" vertex="1">
          <mxGeometry y="50" width="250" height="40" as="geometry" />
        </mxCell>
        <mxCell id="CNr6qrwwwbzCUoEsULPP-16" value="pk,fk" style="shape=partialRectangle;overflow=hidden;connectable=0;fillColor=none;top=0;left=0;bottom=0;right=0;fontStyle=1;fontFamily=Verdana;fontSize=15;rounded=1;textDirection=ltr;" parent="CNr6qrwwwbzCUoEsULPP-15" vertex="1">
          <mxGeometry width="60" height="40" as="geometry" />
        </mxCell>
        <mxCell id="CNr6qrwwwbzCUoEsULPP-17" value="Nro País" style="shape=partialRectangle;overflow=hidden;connectable=0;fillColor=none;top=0;left=0;bottom=0;right=0;align=left;spacingLeft=6;fontStyle=5;fontFamily=Verdana;fontSize=15;rounded=1;textDirection=ltr;" parent="CNr6qrwwwbzCUoEsULPP-15" vertex="1">
          <mxGeometry x="60" width="190" height="40" as="geometry" />
        </mxCell>
        <mxCell id="CNr6qrwwwbzCUoEsULPP-21" value="" style="shape=partialRectangle;collapsible=0;dropTarget=0;pointerEvents=0;fillColor=none;points=[[0,0.5],[1,0.5]];portConstraint=eastwest;top=0;left=0;right=0;bottom=1;fontFamily=Verdana;fontSize=15;rounded=1;textDirection=ltr;" parent="CNr6qrwwwbzCUoEsULPP-14" vertex="1">
          <mxGeometry y="90" width="250" height="40" as="geometry" />
        </mxCell>
        <mxCell id="CNr6qrwwwbzCUoEsULPP-22" value="pk" style="shape=partialRectangle;overflow=hidden;connectable=0;fillColor=none;top=0;left=0;bottom=0;right=0;fontStyle=1;fontFamily=Verdana;fontSize=15;rounded=1;textDirection=ltr;" parent="CNr6qrwwwbzCUoEsULPP-21" vertex="1">
          <mxGeometry width="60" height="40" as="geometry" />
        </mxCell>
        <mxCell id="CNr6qrwwwbzCUoEsULPP-23" value="NroCiudad" style="shape=partialRectangle;overflow=hidden;connectable=0;fillColor=none;top=0;left=0;bottom=0;right=0;align=left;spacingLeft=6;fontStyle=5;fontFamily=Verdana;fontSize=15;rounded=1;textDirection=ltr;" parent="CNr6qrwwwbzCUoEsULPP-21" vertex="1">
          <mxGeometry x="60" width="190" height="40" as="geometry" />
        </mxCell>
        <mxCell id="CNr6qrwwwbzCUoEsULPP-18" value="" style="shape=partialRectangle;collapsible=0;dropTarget=0;pointerEvents=0;fillColor=none;points=[[0,0.5],[1,0.5]];portConstraint=eastwest;top=0;left=0;right=0;bottom=0;fontFamily=Verdana;fontSize=15;rounded=1;textDirection=ltr;" parent="CNr6qrwwwbzCUoEsULPP-14" vertex="1">
          <mxGeometry y="130" width="250" height="30" as="geometry" />
        </mxCell>
        <mxCell id="CNr6qrwwwbzCUoEsULPP-19" value="" style="shape=partialRectangle;overflow=hidden;connectable=0;fillColor=none;top=0;left=0;bottom=0;right=0;fontFamily=Verdana;fontSize=15;rounded=1;textDirection=ltr;" parent="CNr6qrwwwbzCUoEsULPP-18" vertex="1">
          <mxGeometry width="60" height="30" as="geometry" />
        </mxCell>
        <mxCell id="CNr6qrwwwbzCUoEsULPP-20" value="NombreCiudad" style="shape=partialRectangle;overflow=hidden;connectable=0;fillColor=none;top=0;left=0;bottom=0;right=0;align=left;spacingLeft=6;fontFamily=Verdana;fontSize=15;rounded=1;textDirection=ltr;" parent="CNr6qrwwwbzCUoEsULPP-18" vertex="1">
          <mxGeometry x="60" width="190" height="30" as="geometry" />
        </mxCell>
        <mxCell id="JbCay_CWZVzBNDAwxFtf-46" style="edgeStyle=none;rounded=1;sketch=0;orthogonalLoop=1;jettySize=auto;html=1;exitX=0.75;exitY=0;exitDx=0;exitDy=0;fontSize=15;textDirection=ltr;" parent="1" source="CNr6qrwwwbzCUoEsULPP-4" target="CNr6qrwwwbzCUoEsULPP-4" edge="1">
          <mxGeometry relative="1" as="geometry" />
        </mxCell>
        <mxCell id="WGjpE4m-nX1BgtbId8Ap-1" value="" style="edgeStyle=entityRelationEdgeStyle;fontSize=12;html=1;endArrow=ERzeroToMany;startArrow=ERmandOne;" parent="1" source="CNr6qrwwwbzCUoEsULPP-94" target="CNr6qrwwwbzCUoEsULPP-31" edge="1">
          <mxGeometry width="100" height="100" relative="1" as="geometry">
            <mxPoint x="-330" y="240" as="sourcePoint" />
            <mxPoint x="-230" y="140" as="targetPoint" />
          </mxGeometry>
        </mxCell>
        <mxCell id="WGjpE4m-nX1BgtbId8Ap-4" value="" style="edgeStyle=entityRelationEdgeStyle;fontSize=12;html=1;endArrow=ERzeroToMany;startArrow=ERmandOne;" parent="1" source="CNr6qrwwwbzCUoEsULPP-78" target="CNr6qrwwwbzCUoEsULPP-35" edge="1">
          <mxGeometry width="100" height="100" relative="1" as="geometry">
            <mxPoint x="710" y="270" as="sourcePoint" />
            <mxPoint x="350" y="330" as="targetPoint" />
          </mxGeometry>
        </mxCell>
        <mxCell id="WGjpE4m-nX1BgtbId8Ap-5" value="" style="edgeStyle=entityRelationEdgeStyle;fontSize=12;html=1;endArrow=ERzeroToMany;startArrow=ERmandOne;entryX=1;entryY=0.5;entryDx=0;entryDy=0;exitX=0;exitY=0.5;exitDx=0;exitDy=0;" parent="1" source="CNr6qrwwwbzCUoEsULPP-21" target="CNr6qrwwwbzCUoEsULPP-60" edge="1">
          <mxGeometry width="100" height="100" relative="1" as="geometry">
            <mxPoint x="790" y="490" as="sourcePoint" />
            <mxPoint x="530" y="150" as="targetPoint" />
          </mxGeometry>
        </mxCell>
        <mxCell id="WGjpE4m-nX1BgtbId8Ap-7" value="" style="edgeStyle=entityRelationEdgeStyle;fontSize=12;html=1;endArrow=ERzeroToMany;startArrow=ERmandOne;exitX=0;exitY=0.5;exitDx=0;exitDy=0;" parent="1" source="CNr6qrwwwbzCUoEsULPP-5" target="CNr6qrwwwbzCUoEsULPP-63" edge="1">
          <mxGeometry width="100" height="100" relative="1" as="geometry">
            <mxPoint x="1210" y="500" as="sourcePoint" />
            <mxPoint x="500" y="260" as="targetPoint" />
          </mxGeometry>
        </mxCell>
        <mxCell id="WGjpE4m-nX1BgtbId8Ap-8" value="" style="edgeStyle=entityRelationEdgeStyle;fontSize=12;html=1;endArrow=ERzeroToMany;startArrow=ERmandOne;entryX=1;entryY=0.5;entryDx=0;entryDy=0;exitX=0;exitY=0.5;exitDx=0;exitDy=0;" parent="1" source="CNr6qrwwwbzCUoEsULPP-88" target="CNr6qrwwwbzCUoEsULPP-91" edge="1">
          <mxGeometry width="100" height="100" relative="1" as="geometry">
            <mxPoint x="230" y="780" as="sourcePoint" />
            <mxPoint x="60" y="500" as="targetPoint" />
          </mxGeometry>
        </mxCell>
        <mxCell id="WGjpE4m-nX1BgtbId8Ap-9" value="" style="edgeStyle=entityRelationEdgeStyle;fontSize=12;html=1;endArrow=ERzeroToMany;startArrow=ERmandOne;" parent="1" source="CNr6qrwwwbzCUoEsULPP-8" target="C-vyLk0tnHw3VtMMgP7b-23" edge="1">
          <mxGeometry width="100" height="100" relative="1" as="geometry">
            <mxPoint x="110" y="700" as="sourcePoint" />
            <mxPoint y="510" as="targetPoint" />
          </mxGeometry>
        </mxCell>
        <mxCell id="WGjpE4m-nX1BgtbId8Ap-21" value="" style="edgeStyle=entityRelationEdgeStyle;fontSize=12;html=1;endArrow=ERzeroToMany;startArrow=ERmandOne;" parent="1" source="CNr6qrwwwbzCUoEsULPP-14" target="C-vyLk0tnHw3VtMMgP7b-23" edge="1">
          <mxGeometry width="100" height="100" relative="1" as="geometry">
            <mxPoint x="540" y="630" as="sourcePoint" />
            <mxPoint x="30" y="630" as="targetPoint" />
          </mxGeometry>
        </mxCell>
        <mxCell id="WGjpE4m-nX1BgtbId8Ap-22" value="" style="edgeStyle=entityRelationEdgeStyle;fontSize=15;html=1;endArrow=ERzeroToMany;startArrow=ERmandOne;textDirection=ltr;" parent="1" source="CNr6qrwwwbzCUoEsULPP-113" target="C-vyLk0tnHw3VtMMgP7b-23" edge="1">
          <mxGeometry width="100" height="100" relative="1" as="geometry">
            <mxPoint x="-250" y="790" as="sourcePoint" />
            <mxPoint x="-350" y="810" as="targetPoint" />
          </mxGeometry>
        </mxCell>
        <mxCell id="WGjpE4m-nX1BgtbId8Ap-23" value="" style="edgeStyle=entityRelationEdgeStyle;fontSize=12;html=1;endArrow=ERoneToMany;startArrow=ERmandOne;" parent="1" source="peaKFF1j2xQkg63rvkMD-47" target="CNr6qrwwwbzCUoEsULPP-185" edge="1">
          <mxGeometry width="100" height="100" relative="1" as="geometry">
            <mxPoint x="60" y="710" as="sourcePoint" />
            <mxPoint x="170" y="740" as="targetPoint" />
          </mxGeometry>
        </mxCell>
        <mxCell id="WGjpE4m-nX1BgtbId8Ap-24" value="" style="edgeStyle=entityRelationEdgeStyle;fontSize=12;html=1;endArrow=ERzeroToMany;startArrow=ERmandOne;exitX=1;exitY=0.5;exitDx=0;exitDy=0;" parent="1" source="CNr6qrwwwbzCUoEsULPP-161" target="CNr6qrwwwbzCUoEsULPP-69" edge="1">
          <mxGeometry width="100" height="100" relative="1" as="geometry">
            <mxPoint x="650" y="1280" as="sourcePoint" />
            <mxPoint x="110" y="1350" as="targetPoint" />
          </mxGeometry>
        </mxCell>
        <mxCell id="WGjpE4m-nX1BgtbId8Ap-48" value="" style="edgeStyle=entityRelationEdgeStyle;fontSize=12;html=1;endArrow=ERzeroToMany;startArrow=ERmandOne;entryX=0;entryY=0.5;entryDx=0;entryDy=0;" parent="1" source="CNr6qrwwwbzCUoEsULPP-78" target="CNr6qrwwwbzCUoEsULPP-129" edge="1">
          <mxGeometry width="100" height="100" relative="1" as="geometry">
            <mxPoint x="1135" y="810" as="sourcePoint" />
            <mxPoint x="455" y="580" as="targetPoint" />
          </mxGeometry>
        </mxCell>
        <mxCell id="WGjpE4m-nX1BgtbId8Ap-49" value="" style="edgeStyle=entityRelationEdgeStyle;fontSize=12;html=1;endArrow=ERzeroToMany;startArrow=ERmandOne;entryX=1;entryY=0.5;entryDx=0;entryDy=0;exitX=1;exitY=0.5;exitDx=0;exitDy=0;" parent="1" source="CNr6qrwwwbzCUoEsULPP-21" target="CNr6qrwwwbzCUoEsULPP-126" edge="1">
          <mxGeometry width="100" height="100" relative="1" as="geometry">
            <mxPoint x="900" y="480" as="sourcePoint" />
            <mxPoint x="980" y="1010" as="targetPoint" />
          </mxGeometry>
        </mxCell>
        <mxCell id="WGjpE4m-nX1BgtbId8Ap-50" value="" style="edgeStyle=entityRelationEdgeStyle;fontSize=12;html=1;endArrow=ERzeroToMany;startArrow=ERmandOne;entryX=1;entryY=0.5;entryDx=0;entryDy=0;exitX=0;exitY=0.5;exitDx=0;exitDy=0;" parent="1" source="CNr6qrwwwbzCUoEsULPP-5" target="CNr6qrwwwbzCUoEsULPP-123" edge="1">
          <mxGeometry width="100" height="100" relative="1" as="geometry">
            <mxPoint x="880" y="510" as="sourcePoint" />
            <mxPoint x="880" y="945" as="targetPoint" />
          </mxGeometry>
        </mxCell>
        <mxCell id="WGjpE4m-nX1BgtbId8Ap-51" value="" style="edgeStyle=entityRelationEdgeStyle;fontSize=12;html=1;endArrow=ERzeroToMany;startArrow=ERmandOne;exitX=0;exitY=0.5;exitDx=0;exitDy=0;" parent="1" source="0vbI861UmPsHp6fMAkOY-40" target="peaKFF1j2xQkg63rvkMD-84" edge="1">
          <mxGeometry width="100" height="100" relative="1" as="geometry">
            <mxPoint x="1110" y="630" as="sourcePoint" />
            <mxPoint x="940" y="1010" as="targetPoint" />
          </mxGeometry>
        </mxCell>
        <mxCell id="WGjpE4m-nX1BgtbId8Ap-52" value="" style="edgeStyle=entityRelationEdgeStyle;fontSize=12;html=1;endArrow=ERzeroToMany;startArrow=ERmandOne;entryX=1;entryY=0.5;entryDx=0;entryDy=0;" parent="1" source="CNr6qrwwwbzCUoEsULPP-8" target="CNr6qrwwwbzCUoEsULPP-139" edge="1">
          <mxGeometry width="100" height="100" relative="1" as="geometry">
            <mxPoint x="1420" y="610" as="sourcePoint" />
            <mxPoint x="1470" y="1130" as="targetPoint" />
          </mxGeometry>
        </mxCell>
        <mxCell id="WGjpE4m-nX1BgtbId8Ap-54" value="" style="edgeStyle=entityRelationEdgeStyle;fontSize=12;html=1;endArrow=ERzeroToMany;startArrow=ERmandOne;exitX=1;exitY=0.5;exitDx=0;exitDy=0;" parent="1" source="CNr6qrwwwbzCUoEsULPP-21" target="CNr6qrwwwbzCUoEsULPP-142" edge="1">
          <mxGeometry width="100" height="100" relative="1" as="geometry">
            <mxPoint x="800" y="570" as="sourcePoint" />
            <mxPoint x="800" y="730" as="targetPoint" />
          </mxGeometry>
        </mxCell>
        <mxCell id="WGjpE4m-nX1BgtbId8Ap-55" value="" style="edgeStyle=entityRelationEdgeStyle;fontSize=12;html=1;endArrow=ERzeroToMany;startArrow=ERmandOne;entryX=0;entryY=0.5;entryDx=0;entryDy=0;" parent="1" source="CNr6qrwwwbzCUoEsULPP-85" target="CNr6qrwwwbzCUoEsULPP-145" edge="1">
          <mxGeometry width="100" height="100" relative="1" as="geometry">
            <mxPoint x="740" y="570" as="sourcePoint" />
            <mxPoint x="920" y="825" as="targetPoint" />
          </mxGeometry>
        </mxCell>
      </root>
    </mxGraphModel>
  </diagram>
</mxfile>
